<svg xmlns="http://www.w3.org/2000/svg" width="20" height="20" viewBox="0 0 20 20" fill="none">
<path fill-rule="evenodd" clip-rule="evenodd" d="M2.9165 9.78167C2.9165 5.99584 5.9965 2.91667 9.78234 2.91667C13.5673 2.91667 16.6473 5.99584 16.6473 9.78167C16.6473 13.5675 13.5673 16.6475 9.78234 16.6475C5.9965 16.6475 2.9165 13.5675 2.9165 9.78167ZM1.6665 9.78167C1.6665 14.2567 5.30734 17.8975 9.78234 17.8975C11.6962 17.8975 13.4573 17.2316 14.8463 16.1192L17.4869 18.7523C17.6094 18.874 17.7694 18.9348 17.9286 18.9348C18.0886 18.9348 18.2494 18.874 18.3711 18.7507C18.6152 18.5065 18.6144 18.1115 18.3702 17.8673L15.7606 15.2644C17.0869 13.8191 17.8973 11.8933 17.8973 9.78167C17.8973 5.30667 14.2573 1.66667 9.78234 1.66667C5.30734 1.66667 1.6665 5.30667 1.6665 9.78167Z" fill="#A6A3A5"/>
</svg>